<svg display="none" xmlns="http://www.w3.org/2000/svg" >
<symbol viewBox="0 0 81 24" id="logo-icon">
<path d="M10.15 1.76007H14.02L23.26 23.0001H17.98L16.15 18.5001H7.89997L6.12997 23.0001H0.969971L10.15 1.76007ZM11.95 7.94007L9.36997 14.5401H14.56L11.95 7.94007Z" fill="#01996D"/>
<path d="M24.8863 0.320068H29.3863V23.0001H24.8863V0.320068Z" fill="#01996D"/>
<path d="M32.6793 8.42007H37.1793V23.0001H32.6793V8.42007ZM32.3193 3.83007C32.3193 3.11007 32.5693 2.50007 33.0693 2.00007C33.5893 1.48007 34.2093 1.22007 34.9293 1.22007C35.6493 1.22007 36.2593 1.48007 36.7593 2.00007C37.2793 2.50007 37.5393 3.11007 37.5393 3.83007C37.5393 4.55007 37.2793 5.17007 36.7593 5.69007C36.2593 6.19007 35.6493 6.44007 34.9293 6.44007C34.2093 6.44007 33.5893 6.19007 33.0693 5.69007C32.5693 5.17007 32.3193 4.55007 32.3193 3.83007Z" fill="#01996D"/>
<path d="M38.8822 8.42007H43.7422L47.4322 18.3201H47.4922L50.9122 8.42007H55.4422L49.6822 23.0001H44.9122L38.8822 8.42007Z" fill="#01996D"/>
<path d="M57.1422 8.42007H61.6422V23.0001H57.1422V8.42007ZM56.7822 3.83007C56.7822 3.11007 57.0322 2.50007 57.5322 2.00007C58.0522 1.48007 58.6722 1.22007 59.3922 1.22007C60.1122 1.22007 60.7222 1.48007 61.2222 2.00007C61.7422 2.50007 62.0022 3.11007 62.0022 3.83007C62.0022 4.55007 61.7422 5.17007 61.2222 5.69007C60.7222 6.19007 60.1122 6.44007 59.3922 6.44007C58.6722 6.44007 58.0522 6.19007 57.5322 5.69007C57.0322 5.17007 56.7822 4.55007 56.7822 3.83007Z" fill="#01996D"/>
<path d="M64.3351 15.7101C64.3351 14.5501 64.5451 13.5001 64.9651 12.5601C65.3851 11.6201 65.9551 10.8201 66.6751 10.1601C67.4151 9.48007 68.2751 8.96007 69.2551 8.60007C70.2551 8.24007 71.3151 8.06007 72.4351 8.06007C73.5551 8.06007 74.6051 8.24007 75.5851 8.60007C76.5851 8.96007 77.4451 9.48007 78.1651 10.1601C78.9051 10.8201 79.4851 11.6201 79.9051 12.5601C80.3251 13.5001 80.5351 14.5501 80.5351 15.7101C80.5351 16.8701 80.3251 17.9201 79.9051 18.8601C79.4851 19.8001 78.9051 20.6101 78.1651 21.2901C77.4451 21.9501 76.5851 22.4601 75.5851 22.8201C74.6051 23.1801 73.5551 23.3601 72.4351 23.3601C71.3151 23.3601 70.2551 23.1801 69.2551 22.8201C68.2751 22.4601 67.4151 21.9501 66.6751 21.2901C65.9551 20.6101 65.3851 19.8001 64.9651 18.8601C64.5451 17.9201 64.3351 16.8701 64.3351 15.7101ZM68.8351 15.7101C68.8351 16.8101 69.1451 17.7001 69.7651 18.3801C70.4051 19.0601 71.2951 19.4001 72.4351 19.4001C73.5751 19.4001 74.4551 19.0601 75.0751 18.3801C75.7151 17.7001 76.0351 16.8101 76.0351 15.7101C76.0351 14.6101 75.7151 13.7201 75.0751 13.0401C74.4551 12.3601 73.5751 12.0201 72.4351 12.0201C71.2951 12.0201 70.4051 12.3601 69.7651 13.0401C69.1451 13.7201 68.8351 14.6101 68.8351 15.7101Z" fill="#01996D"/>
</symbol>

<symbol width="70" height="70" viewBox="0 0 20 20" id="play-icon">
<path d="M7.5 14.5L14.5 10L7.5 5.5V14.5ZM10 20C8.61667 20 7.31667 19.7375 6.1 19.2125C4.88333 18.6875 3.825 17.975 2.925 17.075C2.025 16.175 1.3125 15.1167 0.7875 13.9C0.2625 12.6833 0 11.3833 0 10C0 8.61667 0.2625 7.31667 0.7875 6.1C1.3125 4.88333 2.025 3.825 2.925 2.925C3.825 2.025 4.88333 1.3125 6.1 0.7875C7.31667 0.2625 8.61667 0 10 0C11.3833 0 12.6833 0.2625 13.9 0.7875C15.1167 1.3125 16.175 2.025 17.075 2.925C17.975 3.825 18.6875 4.88333 19.2125 6.1C19.7375 7.31667 20 8.61667 20 10C20 11.3833 19.7375 12.6833 19.2125 13.9C18.6875 15.1167 17.975 16.175 17.075 17.075C16.175 17.975 15.1167 18.6875 13.9 19.2125C12.6833 19.7375 11.3833 20 10 20ZM10 18C12.2333 18 14.125 17.225 15.675 15.675C17.225 14.125 18 12.2333 18 10C18 7.76667 17.225 5.875 15.675 4.325C14.125 2.775 12.2333 2 10 2C7.76667 2 5.875 2.775 4.325 4.325C2.775 5.875 2 7.76667 2 10C2 12.2333 2.775 14.125 4.325 15.675C5.875 17.225 7.76667 18 10 18Z"/>

</symbol>


</svg>


